<?xml version="1.0" encoding="utf-8"?>
<!-- Generator: Adobe Illustrator 27.0.1, SVG Export Plug-In . SVG Version: 6.00 Build 0)  -->
<svg version="1.1" id="Layer_1" xmlns="http://www.w3.org/2000/svg" xmlns:xlink="http://www.w3.org/1999/xlink" x="0px" y="0px"
	 viewBox="0 0 48 48" style="enable-background:new 0 0 48 48;" xml:space="preserve">
<style type="text/css">
	.st0{fill:#FFFFFF;}
</style>
<g id="_11_-_20">
	<g id="Relationship">
		<path class="st0" d="M22.7,35.3l-0.1-0.1c-0.9-0.7-2.2-0.6-3,0.3l0.7-0.8c0.7-0.9,0.6-2.2-0.3-3l-0.1-0.1c-0.9-0.7-2.2-0.6-3,0.3
			l0,0c0.1-0.1,0.1-0.1,0.2-0.2l0.5-0.7c0.7-0.9,0.6-2.2-0.2-2.9c0,0,0,0,0,0l-0.1-0.1c-0.9-0.7-2.2-0.6-2.9,0.2c0,0,0,0,0,0
			L13.6,29c0.7-0.9,0.6-2.2-0.3-3l-0.1-0.1c-0.9-0.7-2.2-0.6-3,0.3c0,0,0,0,0,0l-2.6,3.1c0,0-0.1,0.1-0.1,0.2
			c-0.6,0.9-0.5,2.1,0.4,2.8l0.1,0.1c0.9,0.7,2.2,0.6,3-0.3c-0.7,0.9-0.6,2.2,0.3,3l0.1,0.1c0.9,0.7,2.2,0.6,2.9-0.3l0,0l0,0
			c-0.7,0.9-0.6,2.2,0.3,3c0,0,0,0,0,0l0.1,0.1c0.9,0.7,2.2,0.6,3-0.3c-0.7,0.9-0.6,2.2,0.3,3l0.1,0.1c0.9,0.7,2.2,0.6,3-0.3
			l1.9-2.2C23.7,37.4,23.6,36.1,22.7,35.3z"/>
		<path class="st0" d="M34,15.4c-0.2-0.3-0.3-0.7-0.4-1C32.8,14.2,32,14,31.1,14h-3.5c-1.5,0-2.9,0.4-4.1,1.2l-4.7,2.9
			c-0.9,0.6-1.2,1.8-0.6,2.7c0.5,0.8,1.5,1.2,2.4,0.8l9-3.6l9.4,8c0.2-0.2,0.5-0.4,0.8-0.6L34,15.4z"/>
		<path class="st0" d="M36.5,11.7l2.2-1.2c1-0.6,2.2-0.2,2.7,0.7l6.3,11c0.6,1,0.2,2.2-0.7,2.7l-2.2,1.2c-1,0.6-2.2,0.2-2.7-0.7
			l-6.3-11C35.2,13.5,35.5,12.3,36.5,11.7z"/>
		<path class="st0" d="M0.3,22.2l6.3-11c0.6-1,1.8-1.3,2.7-0.7l2.2,1.2c1,0.6,1.3,1.8,0.7,2.7l-6.3,11c-0.6,1-1.8,1.3-2.7,0.7
			L1,24.9C0,24.4-0.3,23.1,0.3,22.2z"/>
		<path class="st0" d="M35.9,31.9l0.5,0.5c0.8,0.7,2.1,0.7,2.9,0l0,0c0.9-0.8,1-2.2,0.2-3.1c-0.1-0.1-0.2-0.2-0.2-0.2L30,21
			l-0.7-0.6l-7.9,3.2c-2,0.8-4.4-0.2-5.2-2.2c-0.7-1.8-0.1-3.8,1.6-4.9l4.1-2.6l-4.6-0.6c-0.9-0.1-1.9-0.1-2.8,0.1
			c0,0.7-0.2,1.5-0.5,2.1L8.1,25.6l0.6-0.7c1.5-1.7,4-2,5.8-0.5l0.2,0.1c0.3,0.3,0.6,0.6,0.8,0.9c1.1-0.1,2.2,0.2,3.1,0.9l0.2,0.1
			c0.8,0.7,1.3,1.7,1.4,2.8c0,0,0,0.1,0,0.1c0.4,0.2,0.7,0.4,1.1,0.6l0.1,0.1c0.9,0.7,1.4,1.8,1.5,2.9c0.4,0.2,0.7,0.4,1.1,0.6
			l0.1,0.1c1.7,1.4,1.9,3.8,0.6,5.6l0.5,0.4c0.9,0.8,2.3,0.8,3.1-0.1c0,0,0,0,0,0c0.8-0.9,0.7-2.3-0.1-3.1l0.7,0.6
			c0.9,0.8,2.3,0.8,3.1-0.1c0.8-0.9,0.8-2.3-0.1-3.1l0,0l1.3,1.2c0.9,0.8,2.3,0.7,3.1-0.2C36.8,34.1,36.8,32.7,35.9,31.9z"/>
	</g>
</g>
</svg>
