<?xml version="1.0" encoding="utf-8"?>
<!-- Generator: Adobe Illustrator 27.0.1, SVG Export Plug-In . SVG Version: 6.00 Build 0)  -->
<svg version="1.1" id="Layer_1" xmlns="http://www.w3.org/2000/svg" xmlns:xlink="http://www.w3.org/1999/xlink" x="0px" y="0px"
	 viewBox="0 0 1080 1080" style="enable-background:new 0 0 1080 1080;" xml:space="preserve">
<style type="text/css">
	.st0{fill:#FFFFFF;}
</style>
<g transform="translate(0.000000,1080.000000) scale(0.100000,-0.100000)">
	<path class="st0" d="M5920,8185c-857-111-1555-746-1734-1576c-44-202-47-287-44-1054l3-720l31-65c39-83,111-155,194-194
		c58-27,75-31,155-31s97,4,157,32c126,60,207,162,228,289c6,34,10,344,10,734c0,751,2,778,66,970c104,312,328,571,623,720
		c81,41,244,94,341,111c42,7,139,13,220,13c158-1,245-15,392-64c372-124,671-431,787-805c34-113,47-186,56-330
		c10-156,44-242,127-321c81-77,155-106,267-105c196,2,350,136,382,333c14,83-4,307-36,461c-171,827-824,1451-1665,1592
		C6349,8197,6053,8203,5920,8185z"/>
	<path class="st0" d="M6185,6247c-151-39-267-159-295-306c-6-33-10-315-10-730c0-714-3-766-49-926c-165-579-714-955-1308-897
		c-414,41-756,263-966,627c-91,157-141,320-157,510c-14,162-27,230-55,285c-30,60-112,135-183,168c-50,24-69,27-157,27
		c-91,0-106-3-165-31c-122-58-199-160-221-294c-23-138,17-438,87-661c231-731,850-1269,1604-1394c134-23,392-30,525-16
		c964,105,1718,856,1815,1810c6,61,10,387,10,800c0,774,1,767-65,866C6508,6215,6333,6285,6185,6247z"/>
</g>
</svg>
